<svg version="1" xmlns="http://www.w3.org/2000/svg" width="400" height="400" viewBox="0 0 300.000000 300.000000"><path d="M267 2c2 1.6 2.2 2 .8 2-2.2 0-2.3 1.4-.3 3.4.8.8 1.5 2.1 1.5 3 0 2.1 3.4 3.8 4.8 2.4.8-.8 1.5-.8 2.4 0 1.6 1.3 2.8.6 5.2-2.8l1.7-2.5-.1 2.5c-.3 3.9-.1 5 1 5 1.3 0 3.1-4.5 3.4-8.7.2-1.8.9-3.9 1.6-4.8 1.1-1.3-.2-1.5-11.6-1.5h-12.9l2.5 2zM153 16.4c0 .2.7.6 1.5 1 .8.3 1.5.1 1.5-.4 0-.6-.7-1-1.5-1s-1.5.2-1.5.4zM160.6 17.9c-1 1.6 7.2 3.5 9 2 1.2-1 1.8-.6 1.6 1.2-.1.3.5.6 1.2.6 2 0 10.6 3.7 10.6 4.5 0 .5.6.8 1.3.9 1.4 0 7.7 9.2 7.7 11.3 0 .8.5 1.8 1 2.1.6.3 1 1.5 1 2.6 0 1 .3 1.9.8 1.9 1.2 0 4.6 8.1 4.4 10.6-.1 1.5.4 2.4 1.3 2.4.8 0 1.6.3 1.6.7.1.5.3 1.7.4 2.8.1 1.2.7 3.6 1.2 5.5.6 1.9 1.1 5.5 1.2 8 .3 13.3 1.4 20.6 4.3 26.9 3.7 8.3 7 24 7.3 35.4.1 4.8.5 9 .9 9.4.3.3.6.2.6-.3s.4-1.6 1-2.4c.8-1.2 1.1-1.2 2.7.2 1 .9 2.9 1.8 4.3 2 2.2.3 2.5.8 2.5 4.6 0 4.8 1.7 5.5 5.3 2.2 1.7-1.6 2.2-3.2 2.2-6.9 0-5.5-2.1-8.1-8.4-10.1-3.9-1.3-5.5-.5-5.6 2.7 0 .6-.4 1.4-.9 1.7-.5.4-.8-.2-.6-1.1.2-1 .6-4.3.9-7.3.4-4.4 1-5.9 3.4-8 1.7-1.4 3.7-4.2 4.5-6.2.9-2 2.7-4.4 4.1-5.3 1.9-1.3 2.3-2.1 1.7-3.4-.4-.9-.9-4.3-1-7.6-.5-11.4-2.2-24-4.4-32-1.6-6.1-9.5-21.6-12.6-25-1.5-1.7-3.4-3.9-4.2-5-1.3-1.8-1.3-1.9.4-.6 2.4 1.9 2.1-.1-.5-3.5-4-5.1-7.2-7.4-9.5-7-1.7.2-2.3-.2-2.3-1.6 0-1.3-.9-2-3-2.5-1.6-.3-3-.9-3-1.4 0-.5-.6-.6-1.4-.3-.7.3-2-.1-2.7-.8-.8-.7-3.4-1.5-5.9-1.6-2.5-.2-5.2-.8-6.2-1.3-2.3-1.3-5.8-1.1-5.8.2 0 .8-.4.8-1.2.1-.7-.6-2.4-1-3.8-1s-3.5-.3-4.6-.7c-1.2-.4-2.5-.2-2.8.4zM80.4 33c-2.2 1.5-4.9 2.8-6 2.7-1-.1-1.8.4-1.6 1 .1.7-.5 1.3-1.4 1.3-.9 0-1.2.5-.8 1.1.4.7.1 1-.7.7-.8-.3-1.8 0-2.4.7-3.5 3.8-4.6 5.5-5 7.5-.7 3.4-4.9 12-5.9 12-.4 0-.5-1.1-.2-2.5.5-1.9.3-2.5-1-2.5-1 0-1.4.3-1.1.6.4.4 0 1.9-.7 3.3-2.1 4-3.6 8.2-4 11.8-.2 1.8-.8 3.9-1.4 4.6-.6.7-1.8 5.5-2.7 10.7-.9 5.2-1.8 10.5-2.1 11.7-.5 2.6-5.1 5.3-8.8 5.3-1.7 0-2.4-.4-2-1.4.5-1.4-2.2-3-3.7-2.1-.5.4-.7 1.6-.5 2.8.2 1.4-.6 2.8-2.1 4-1.9 1.6-2.3 2.6-1.9 5.7.2 2.2.7 4.4 1.1 5 .3.5-.2 1.3-1.2 1.7-1 .4-2.4 1.3-3.2 2-.9.9-1.7 1-2.5.4-1.3-1.1-5.6-.4-5.6.9 0 .5-.9 1.1-1.9 1.5-1 .3-2.1 1.4-2.4 2.5-.3 1.4-1.7 2.1-4.6 2.6l-4.1.7V221l2.3.4c20.6 3.9 30.5 7.3 37.1 12.8 3.4 2.8 3.6 3.3 3.6 8.7 0 4.7-.4 6.1-2.3 7.9-1.3 1.2-2.9 2.2-3.5 2.2-2.1 0-1.3 1.5 1.9 3.4 2.9 1.7 3.1 2.1 2.4 6.2-.8 5.4-.7 5.4 12.5 2 5.2-1.4 12.6-3 16.4-3.7 7.5-1.3 7.3-1.1 16.4-11.7l5.3-6.2-6.2-8.3c-8-10.6-12-19.4-15.5-34-2.8-11.6-2.9-11.8-6.7-14-4.2-2.3-12.3-14.7-14.7-22.2-.7-2.2-2.5-7.2-4.1-11.2-5.7-14.3-4-24.3 4-24.3 2.5 0 4.7 3.3 5.7 8.4l.7 4-3.7-3.7c-4-4-6-4.6-7-2.1-1.7 4.4.5 15.9 3.5 19 1.5 1.4 1.7 1.2 2.7-2.8.6-2.4 1.7-5.2 2.5-6.2 1.4-1.8 1.5-1.8 2.6 1.6 1.2 3.6.1 8.2-2.4 10-.7.5-.6 1.1.2 1.6.6.4 1.4 1.9 1.8 3.4.7 2.8 4.4 7.3 5.3 6.4.3-.3-.1-3.9-.9-7.8-1.4-7.4-1.6-17.1-1.1-60.1.2-21.8.4-24.3 2.6-31.2 3.2-10 12.1-25.5 19.1-33.3 6.2-6.8 6.2-7.7-.1-3.2zM69 44c0 .5-.5 1-1.1 1-.5 0-.7-.5-.4-1 .3-.6.8-1 1.1-1 .2 0 .4.4.4 1zM52.3 67.5c-.3.9-.8 1.4-1 1.1-.3-.3-.2-.9.2-1.5.9-1.6 1.5-1.3.8.4zm-16.7 56.9c1.9 1.5 1.9 1.5-.1 1.4-1.1 0-3.1.3-4.4.6-2.3.5-2.4.5-.5-1.4 2.3-2.3 2.5-2.3 5-.6zM18.9 47.7c-3.4.5-5.8 4.6-3.9 6.8 1 1.2 1 1.5-.2 1.5-.8 0-2.3.9-3.3 2-1.5 1.7-1.6 2-.3 2 .9 0 2.1-.6 2.7-1.4.7-.8 2.4-1.7 3.9-2.1 7-1.7 11.8-7.3 7.6-8.9-1.6-.6-1.9-.6-6.5.1zM259.2 81.7c-2.2.4-2.1.6 1.7 3.5 3.3 2.4 4.4 2.8 5.6 1.8.8-.6 2-.8 2.6-.4.7.4 1.7 0 2.3-.8 1.1-1.5 1.7-1.8 3.8-1.8.7 0 .8-.3.3-.9-1.2-1-13-2.1-16.3-1.4z"/><path d="M24.8 104.7c.7.3 1.6.2 1.9-.1.4-.3-.2-.6-1.3-.5-1.1 0-1.4.3-.6.6zM153.9 105.1c-.8.5-2.6.9-4.2.9-2.7 0-5.9 1.4-8.5 3.7-.7.7-1.7 1.3-2.1 1.3-.5 0-1.2 1.5-1.8 3.2-.7 2.5-1.4 3.2-2.8 3-1.5-.2-2 .4-2.1 2.3-.1 1.4.2 2.5.7 2.5.5 0 .9-.5.9-1 0-.6.5-1 1.2-1 .6 0 .8.3.5.6-.7.8 3.6 4.4 5.2 4.4 1.5 0 1.4-1.7-.1-2.3-.7-.3.2-.8 1.9-1.2 1.8-.4 3.1-1.1 2.8-1.5-.2-.4 1.5-1.3 3.8-2s6-1.8 8.2-2.6c3.7-1.2 12.9-2.4 20-2.7 1.8 0 2.9.4 2.8 1.1-.2.7.2 1.2.7 1.2.6 0 1-.4 1-.9s.9-1.1 2.1-1.3c2-.3 1.9-.4-.7-2.8-1.6-1.4-2.2-1.7-1.5-.8 1.1 1.5 1.1 1.8-.2 1.8-.8 0-2-.7-2.7-1.5-.7-.8-1.6-1.2-2.1-.9-.5.2-3-.4-5.6-1.5-5.3-2.3-15.2-3.4-17.4-2z"/><path d="M172 106c2 1.3 3.3 1.3 2.5 0-.3-.6-1.4-1-2.3-1-1.5 0-1.5.2-.2 1zM89.6 109.2c.5.8.3.9-3.3 1.3-3.5.4-5.5 1.4-4.8 2.6.4.6.1.9-.6.7-.8-.1-2.9.4-4.7 1.1-2.4 1-3.2 1.9-3 3.5.4 2.9 4 3.4 12.3 1.7 7-1.4 7.5-1.4 14.3.9 5.9 2 7.1 2.8 6.9 4.5-.3 2.7-1.7 3.6-3.8 2.4-1-.5-4.4-.8-7.6-.8l-5.8.2 5.8.7c3.2.4 6.3 1.2 7 1.9.8.8.2.8-2.3.1-5.6-1.6-18.2 2.4-24.5 7.8-2.8 2.3-3.6 3.5-2.8 4.3.8.8 1.8.6 3.6-.5 4.1-2.8 30.9-4.3 32.8-1.9.9 1 .7 1.3-.7 1.4-4.2.1-8.9 1-13.1 2.4-4.6 1.6-10.3 4.3-10.3 4.9 0 .5 8.7-.4 14-1.4 2.5-.5 6.7-1.8 9.4-2.9l4.7-2.1-1.9-2.7c-3.5-5.1-3.6-5.8-.8-3.6 1.5 1.2 3.4 1.9 4.2 1.6.8-.3 1.3-.8 1-1.1-.3-.2.1-1.4.9-2.6.8-1.1 1.5-2.9 1.5-4s.6-2.7 1.4-3.5c.7-.9 1.6-2.9 2-4.5.7-2.7.6-2.8-1-1.5-1.1.9-1.5.9-1 .1.4-.7.1-1.2-.8-1.2s-1.6.4-1.6 1c0 2.2-2.6.8-3.7-2-.9-2.3-1.5-2.8-3-2.3-1.5.6-1.6.5-.5-.9s.9-1.9-1-3.2c-1.2-.9-3.5-1.6-5-1.6s-2.9-.4-3.2-.9c-.4-.5-3.1-.9-6-.8-3 .1-5.2.5-5 .9zM233.9 117.2c-1.4 1-1.4 1.4.2 4.5.9 1.9 2.2 4 2.8 4.7.6.7 1.8 4.6 2.7 8.6 2 8.8 2.9 7.7 3.7-4.4.6-8.7.6-8.9-2.3-11.7-3-3.1-4.5-3.4-7.1-1.7zM287.8 119.7c-2 .5-2.3 1.8-.8 2.8.6.3 1 1.8 1 3.2 0 2.2.3 2.4 2.6 1.9 1.7-.5 2.3-.3 1.9.4-.7 1.1 1.8 1.2 5 .2 1.5-.5 2-1.6 2.1-4.5.1-3.5 0-3.7-3-3.7-1.7 0-4-.2-5.1-.4-1.1-.2-2.8-.2-3.7.1z"/><path d="M72 122c0 .5.5 1 1.1 1 .5 0 .7-.5.4-1-.3-.6-.8-1-1.1-1-.2 0-.4.4-.4 1zM151.8 124.1c-2.1 1.1-3.8 1.5-3.8.9 0-.5-.7-1-1.5-1s-1.5.6-1.5 1.4c0 .8-1 1.6-2.2 1.9-1.6.4-2.3 1.4-2.3 3.2 0 1.4.6 2.5 1.3 2.5.6 0 1.2.7 1.2 1.5 0 2.1 1 1.9 3.8-.8l2.4-2.2-1.8 3.8c-2.2 4.6-1.5 5.3 5.5 6.7 5.4 1 19.1.3 19.1-1 0-.8-9.3-3-13-3-1.6 0-3.2-.5-3.5-1-.4-.6-1.2-1-1.8-.9-2.4.3-3.8-.1-3.3-1 .3-.4 2-.8 3.9-.8 1.8.1 3.8-.3 4.5-.7.7-.4 2.4-.5 3.7-.2 1.3.3 2.6.3 2.8-.1.7-1.1 12.5-.8 17.4.4 3 .8 4.2.8 4 0-.1-.6 1.2-1.4 2.8-1.8 2.4-.5 2.5-.7.7-.8-1.2 0-5-1.2-8.5-2.6-8.1-3.4-19.1-5-24-3.7-2.1.6-3.5.6-3.2.1.3-.5 2-1.3 3.8-1.8l3.2-.9-3-.1c-1.6 0-4.7.9-6.7 2zm.2 13.9c0 .5-.4 1-.9 1-.6 0-1.3-.5-1.6-1-.3-.6.1-1 .9-1 .9 0 1.6.4 1.6 1zM228.7 124.3c-1.1 2.9-.9 4.3.4 3 .6-.6.9-1.9.7-2.9-.3-1.8-.4-1.8-1.1-.1zM245.6 138.1c-.2.8-.8 4.3-1.4 7.9-1.2 8-8.5 23.6-12.4 26.4-1.4 1-4.9 2.1-7.7 2.4-2.8.2-5.4.9-5.7 1.3-.8 1.3-3.4 27.3-4.1 39.7l-.5 10.3 4 3.5c5.1 4.4 11.4 13.8 14.2 21.1 1.2 3.1 3.6 7.7 5.4 10.2 1.9 2.6 4 6 4.9 7.7 1.3 2.6 2.5 3.3 8.4 4.6 12.9 3.1 31.8 9.6 38.9 13.5 11.5 6.4 10.4 7.5 10.4-10.6 0-15.7 0-15.9-2.3-16.3-4-.8-8.6 1.1-10.2 4.2-2 3.9-4.3 5-7.5 3.7-1.4-.5-3.2-1.1-4.1-1.2-2.3-.2-5.2-3.2-3.9-4 1.6-1 1.2-2.3-1-3-1.5-.5-1.7-1.1-1.1-2.8.4-1.2.6-2.8.4-3.5-.3-.6 0-1.2.6-1.2.7 0 .9-1.1.7-2.4-.3-1.7-.1-2.3.8-2 .8.3 1.6-.2 1.9-1 .4-.9 1.8-1.6 3.2-1.6 1.5 0 2.4-.4 2.1-.8-.3-.5.3-1.6 1.4-2.5 1.5-1.3 2.5-1.4 5.5-.4 2.8.8 3.8.8 4.4-.2.5-.7 2.6-1.8 4.7-2.6 3.8-1.3 3.9-1.4 4.2-6.7.3-5.3.1-5.6-3.7-9.1-4-3.6-4-3.6-2.5-6.7.9-1.6 2-3 2.6-3 3 0 3.7-3.7 3.8-17.8V181h-3.2c-6 0-12.1 6.1-10.5 10.4.3.8-.3 2.3-1.4 3.5-1.1 1.2-1.6 2.1-1.2 2.1.4 0 .3.4-.3 1-.5.5-2.8 1.1-5 1.3-5.5.5-9.8 2.6-11.8 5.6-1.4 2.2-1.6 2.3-1.1.5.4-1.5 0-2.4-1.1-2.8-.9-.4-1.4-1.3-1-2.1.3-.8.1-1.5-.4-1.5-.6 0-1-.6-1-1.4 0-1.6-6.4-8.6-7.9-8.6-.5 0-2-2-3.2-4.5-1.2-2.5-2.6-4.5-3.1-4.5-1.6 0-.7-3.2 1.5-5.3 1.3-1.2 3.2-3.7 4.2-5.5 1.1-1.7 2.3-3.2 2.7-3.2 1.8 0 5.8-7.7 5.8-11.1 0-3-.9-4.6-5.2-9.1-6.6-6.8-10.6-9.6-11.2-7.7zm20.4 71.4c0 .8-.5 1.5-1.1 1.5-.5 0-.7.4-.4 1 .3.6-.1.7-.9.4-1.9-.7-2.1-3-.3-3.7 2.1-.9 2.7-.7 2.7.8zM222 159c0 .5.5 1 1 1 .6 0 1-.5 1-1 0-.6-.4-1-1-1-.5 0-1 .4-1 1zM153 166.7c1.4 1.5 2.8 3 3.1 3.3.3.3 1.1 1.5 1.8 2.7.9 1.7.9 2.3 0 2.3-.6 0-.9.6-.6 1.4.3.8-.4 3-1.7 4.8-1.7 2.5-2.8 3.2-4.7 3-7.4-1-14.3-.9-15.4.1-.7.7-1.2 1.4-1 1.7.6 1-2.4 3-3 2-.3-.6-.1-1 .4-1 .6 0 1.1-.5 1.1-1.1 0-.5-.5-.7-1.2-.3-.6.4-1.7-.1-2.4-1.1-1.1-1.5-1.8-1.6-3.8-.7-1.9.9-2.7.7-4.4-.9-2.3-2-3.7-2.5-2.7-.9.3.5-.3 1-1.4 1-1.1 0-2.4.6-2.8 1.3-1.1 1.9-4.3 2.9-4.3 1.4 0-.8-.4-.6-1 .3-.8 1.3-1 1.3-1 0 0-1-.3-1.1-1.1-.3-1.3 1.3-.1 3.8 4.3 8.4 1.3 1.4 2.2 3.1 2 3.8-.3.8 1 1 4.2.7 3.4-.3 5.2.1 6.9 1.4 3.4 2.7 9.8 3 13 .6 1.5-1.1 1.6-1.9.8-3.4-.9-1.7-.6-2.2 2.2-3.3 1.7-.8 3.7-1.4 4.2-1.5.6 0 1.5-.2 2.2-.2.7-.1 2.8-2 4.8-4.1 5.9-6.3 12.5-7.9 12.5-3.1 0 2 1.2 2.9 4.3 3.4.8.1 2.6.9 4 1.9 4 2.6 10.6-.4 7.2-3.3-.8-.7-1.5-1.8-1.5-2.6 0-.7-.8-1.5-1.7-1.9-1-.3-2.9-2.1-4.3-4s-3-3.5-3.6-3.5c-.6 0-2.7-1.2-4.7-2.8-6.5-5.1-8.9-6.7-11-7.5-2-.7-2-.6.3 2zm-24.4 19.8c1 .8 1.5 1.4.9 1.4-.5 0-1.9-.6-2.9-1.4-1.1-.8-1.5-1.5-1-1.5.6 0 1.9.7 3 1.5zM105.2 168.7c-.6.2-1 .9-.6 1.4.3.5-.2.9-1 .9-.9 0-1.6.4-1.6.8 0 .5-.8 1.7-1.8 2.8-1 1-2.8 3.3-4 5.1-1.2 1.7-3.1 3.5-4.2 3.8-1.1.4-1.8 1-1.5 1.4.2.5-.4 1.8-1.4 2.9-1.4 1.7-2 1.9-3 .9-.9-.9-1.3-.7-1.7 1.1-.5 1.7-1.2 2.1-3.3 1.7-1.4-.3-2-.2-1.3.1.6.3 1.2 1.3 1.2 2.3 0 1.3.9 1.6 4.1 1.6 2.2 0 4.3.3 4.6.8.7 1.2 6.7-.3 7.6-1.9.4-.8 1.5-1.4 2.4-1.4.9 0 1.3-.3 1-.6-.3-.4.5-1.5 1.8-2.6 2.1-1.6 2.3-2.3 1.4-4.6-.6-1.4-.7-3.7-.4-5 .4-1.5.2-2.1-.4-1.7-.7.3-.8 0-.5-.9.3-.9 1-1.6 1.5-1.6.4 0 .6-.7.3-1.5-.4-1 0-1.5 1.1-1.5.9 0 1.4-.4 1.1-.9-.3-.5.1-1.1.9-1.5.8-.3 1.5-1 1.5-1.6 0-1-1.6-1.2-3.8-.3zM56.2 171.2c.5 1.5 2.8 2.3 2.8 1 0-.5-.7-1.3-1.6-1.6-1-.4-1.4-.1-1.2.6z"/><path d="M79 188.4c0 .2.7.6 1.5 1 .8.3 1.5.1 1.5-.4 0-.6-.7-1-1.5-1s-1.5.2-1.5.4zM166.7 196c.3 1.1.9 1.7 1.4 1.5 1-.7.1-3.5-1.1-3.5-.5 0-.6.9-.3 2z"/><path d="M94.3 199.4c.5 1.2 0 2.4-1.4 3.5-1.3 1.1-2.2 2.9-2.2 4.7.1 4.1 2 10.8 3.2 11.2.6.2 1.1.9 1.1 1.6 0 .6 1.4 1.6 3.2 2.1 3.4 1.1 5.1 3.5 2.4 3.5-2.3 0-2 1.7.4 2.3 1.7.4 2 0 2-2.3 0-1.6.3-3.5.6-4.4.5-1.4.9-1.4 3.6.2 1.6.9 3.8 3.3 4.8 5.2 1 1.9 2.7 4.4 3.9 5.4 2.2 2 2.8 4.6 1.1 4.6-.6 0-1.8 1.7-2.7 3.9-1.2 2.9-2.1 3.7-3.5 3.3-1.3-.3-1.7-1-1.3-2.3.4-1.1.3-1.9-.2-1.9s-1.9-2.2-3.2-4.9c-1.8-3.9-3-5.1-5.3-5.6-2.6-.6-2.9-1.1-2.6-3.6.5-3.5.1-3.7-1.2-.7-.6 1.6-.9 1.8-.9.7-.1-.9-.8-1.9-1.6-2.3-1.8-.6-2 .5-.4 2.1 1.5 1.5-.6 5.4-2.6 4.7-.8-.4-1.5-1.2-1.5-1.9 0-1.7-3-2.8-3.2-1.2-.6 5.3-.2 7.1 2.8 10.3 1.8 1.9 3.6 4.3 3.9 5.5.4 1.1.9 1.8 1.2 1.5.3-.2-.2-1.9-1.1-3.7-.9-1.8-1.4-3.5-1.1-3.7.3-.3.5 0 .5.7s.5.9 1 .6c.6-.3 1 0 1 .7.1 1.9 2.9-3.4 3-5.5 0-.9-.4-1.7-1-1.7-.5 0-1-.4-1-1 0-2 2.6.2 4 3.3.7 1.7 1.6 3.6 1.8 4.2.3.5-.2.4-1.2-.4-.9-.8-1.8-1.2-2.1-1-.7.8 1.2 3 2.8 3.3.9.1 2.8 1.2 4.3 2.5 1.4 1.2 3.3 2.4 4.2 2.6 1.8.4 7.5 2.3 10.7 3.6l2 .8-2 .1c-1.4.1-.9.5 1.5 1.4 2 .7 3.7 2.1 3.9 3.2.2 1 .8 2.2 1.4 2.6 1.6 1 .5 1.8-4 3-7 1.8-8.9 2-7.4 1 1.9-1.4.1-2.1-4.3-1.8-3.2.3-3.9 0-4.7-2.1-.5-1.3-1.3-2.2-1.8-1.9-1.4.9-6.5-4-5.6-5.4.5-.8.4-1.1-.2-.7-.6.4-1.6 0-2.3-.8-.7-.8-1.6-1.5-2.1-1.5-1.4 0-9.9 12-12.1 17-1 2.4-1.8 5.8-1.8 7.5.1 1.6.1 3.4 0 4-.1.5-.1 1.4 0 2 1.1 5.3 1.3 6.9.9 10.5-.1.8 1.2 3.9 3 6.8l3.3 5.2h15.3v-18.3c0-10-.4-20-.9-22.2l-.9-4 3.8 5c2.1 2.7 5.1 6.5 6.7 8.3 1.5 1.8 2.8 3.9 2.8 4.7 0 .8 1 2 2.3 2.6 3 1.6 3.8 3.1 2.5 4.6-.7.9-.7 1.7.2 2.8 1.4 1.7.5 3.6-1.5 2.8-2.2-.8-1.8.6.8 2.8 2.2 2 2.2 2 0 1-2.9-1.4-4-1.4-2.5.1.7.7 1.2 2.3 1.2 3.8.1 3.1 2.5 6.8 3.3 4.8.4-1 .6-1 .6-.1.1 1.6 36.1 1.9 36.1.3 0-.6-.7-1-1.5-1s-1.5-.5-1.5-1c0-.6-.7-1-1.6-1-1.1 0-1.5-.6-1.1-2 .3-1.1.1-1.8-.4-1.4-.5.3-.9-.1-.9-.8-.1-.9-.4-.9-1.3.2-1 1.3-2 1.4-5.7.6-3.9-.8-4.2-1-2-1.5 1.9-.5 2.6-1.5 3-4.1.3-2.3 1.1-3.6 2.3-3.8.9-.2 1.7.2 1.7 1 0 1 .3.9 1-.2.5-.8 1-1 1-.4 0 .8 1.1.9 3.3.4 1.7-.4 3.1-1.2 3-1.8-.2-.7.5-1.3 1.5-1.3 4-.3 4.5-.5 4.9-1.7.3-.6 0-1.2-.7-1.2-.6 0-.8-.5-.5-1 .3-.6 1.5-1 2.7-1 1.1 0 4.9-2.7 8.5-6 3.5-3.3 7.2-6 8.2-6 1 0 3-1.2 4.4-2.6 1.4-1.4 3-2.3 3.5-2 1.7 1 3.1-1.8 2.8-5.7-.2-2.8.1-3.7 1.2-3.7.8 0 1.3-.3.9-.6-.3-.4 0-1.3.8-2.1 1.7-1.6 2-3.3.6-3.3-.4 0-4.4 2.9-8.7 6.4-4.3 3.5-8.2 6.2-8.5 6-.4-.2-.9 0-1.1.4-.1.5-2.7 2.6-5.7 4.6-4.1 2.9-5.9 3.6-7.9 3.1-1.9-.5-2.2-.9-1.3-1.8.6-.6 1.1-2 1.1-3.2-.1-1.8-.2-1.8-1.3-.3-1.3 1.7-6.7 1.4-6.7-.4 0-.5 1-.7 2.3-.4 1.2.3.6-.2-1.3-1.1-1.9-.9-3.7-1.6-4-1.6-.3 0-1.8.4-3.5.7-2.9.7-2.9.7-1-.8 1.1-.8 2.9-1.6 3.9-1.6 1.1 0 1.6-.3 1.3-.7-.4-.3-.2-1.2.4-2 .9-1 .7-1.3-.8-1.3-1.6 0-1.9-.6-1.8-3.3.2-4 .8-6 1.9-6.8.4-.4.3-1-.3-1.3-.6-.4-1.4 0-1.7.8-.7 1.8-3.9 2.2-4.9.6-.3-.6-1.6-1-2.8-1.1-1.2-.1-.4-.5 1.9-1 4.9-1.1 11.5-6.5 14.2-11.6 1-2.1 3.6-5.6 5.6-7.7 3.6-4 4.3-3.7 3.7 1.3-.2.8.2 1 .9.6s1.7-.1 2.2.6c.7 1.1.8.9.4-.5-.5-1.3-.2-1.7.9-1.2.9.3 1.5 0 1.5-.9 0-.8.4-1.5 1-1.5s.9-2.4.7-5.5c-.1-3 .1-5.5.5-5.5 1.7 0 .6-3.3-1.8-5.5-4-3.8-6.3-3.3-6 1.1.2 2.1-.3 4.3-1.3 5.5-1.5 1.9-2.1 1.9-6.6.9-2.8-.7-5.7-1.4-6.5-1.8-5.9-2.2-10.4-2.8-15.3-2-2.8.5-7 .8-9.2.7-11.2-.7-12.4-.4-22.1 4.2-1.6.8-2.9.5-5.7-1.1-2-1.2-3.4-2.6-3.1-3.1.3-.5-.2-.9-1.1-.9-.9 0-1.4-.4-1-1 .3-.5-.4-1.9-1.6-3.1-1.8-1.8-2.1-1.9-1.6-.5zm62.2 13.6c1.3 2.1-.5 4.8-3 4.6-2.9-.1-3-.4-.9-3.4 1.6-2.4 2.9-2.8 3.9-1.2zm-12.9 1.7c1.3 1.7 1.3 1.7 1.4 0 0-2.6 3.4-1.8 3.8.9.2 1.4-.8 2.9-3 4.6-3 2.3-4.3 2.6-11.1 2.5-4.3 0-8-.4-8.3-.8-.2-.5-1.1-.6-1.9-.3-2.5 1-5.3-1.3-4.8-4.1.6-3 2.7-3.2 4.6-.5 1.4 2.1 1.5 2.1 2.1-.5.8-3.1 3.4-3.3 6.4-.5 1.9 1.8 4.5 3 2.9 1.3-1.1-1 2.4-4.3 4.6-4.3 1.1 0 2.6.8 3.3 1.7zm15.2 6.8c.7.6-3.3 4.5-4.5 4.5-.6 0-1.7.8-2.2 1.7-.6 1-1.1 1.5-1.1 1.1 0-.4-1.2-.3-2.6.2-3.8 1.5-5 0-1.7-2.1 1.5-1 2.8-2.4 2.8-3.1 0-2.6 7-4.3 9.3-2.3zm-37.2 3.4c-.3.4.7.6 2.2.5 1.5-.2 2.1-.1 1.5.2-.7.3-1.3 1-1.3 1.6 0 .6 2.1.7 5.4.3 4.6-.6 5.5-.4 6.5 1.1.7 1.2 1.3 1.5 1.8.8.9-1.2 5.3-1.4 5.3-.2 0 .4-.4.9-1 .9-.5.1-1.4.2-1.9.3-.5 0-1.3.4-1.7.8-1 1-5.4 1-5.4 0 0-.4-.9-.8-2-.9-1.3-.1-2 .4-2 1.5 0 1.4-.4 1.3-1.8-.6-1.4-1.8-2-2-3-1-.9.9-1.5.9-2.4 0-.7-.7-2.2-1.2-3.5-1.2-1.8 0-4.3-2.5-4.3-4.3 0-.2 1.8-.4 4.1-.5 2.2-.1 3.8.2 3.5.7zM97 234.4c0 .3-.4.8-1 1.1-.5.3-1 .1-1-.4 0-.6.5-1.1 1-1.1.6 0 1 .2 1 .4zm62 27.2c0 .2-1.2.4-2.6.4-1.4 0-2.3-.4-2-.9.6-.8 4.6-.4 4.6.5zm-33.3 27.6c.2 1.7 0 1.9-.7.8-.5-.8-.6-1.8-.4-2.2.8-1.2 1-1 1.1 1.4z"/><path d="M131.3 228.7c.9.2 2.3.2 3 0 .6-.3-.1-.5-1.8-.5-1.6 0-2.2.2-1.2.5zM175 228c0 1.7.2 1.9 1.4.8 1.4-1.3 1.2-2.8-.5-2.8-.5 0-.9.9-.9 2zM214.4 239.1c1.8 14.1 1.8 21.5.1 29.4-1 4.4-2.1 9.8-2.5 12-.4 2.2-1.2 5.1-1.7 6.5-.6 1.4-1 2.8-.9 3.2.3 1.6-6.9 7.8-9.2 7.8-4.5 0-1.3 1.6 3.7 1.8 5.5.2 4.9.8 11.5-10.3 3.7-6.3 9.5-19.2 10.6-23.8 1.1-4.2 1-5.5-.9-11.5-2.8-8.5-8.2-19.4-10-20-1.1-.4-1.2.6-.7 4.9zM169 240c0 2.4 1.5 2.7 2.4.4.9-2.2.8-2.4-.9-2.4-.8 0-1.5.9-1.5 2zM0 278.8c0 1.9.3 2.1 1.8 1.3 1-.5 2.4-1.6 2.9-2.3.9-1 .5-1.3-1.8-1.3-2.4 0-2.9.4-2.9 2.3zM64.3 299.7c.9.2 2.3.2 3 0 .6-.3-.1-.5-1.8-.5-1.6 0-2.2.2-1.2.5z"/></svg>